<svg width="251" height="36" viewBox="0 0 251 36" fill="none" xmlns="http://www.w3.org/2000/svg">
<path d="M-2.19345e-05 35.3865V0.477383H4.22725V31.6365H20.4545V35.3865H-2.19345e-05ZM55.0951 17.9319C55.0951 21.6137 54.4304 24.7956 53.1008 27.4774C51.7713 30.1592 49.9474 32.2274 47.6292 33.6819C45.3111 35.1365 42.6633 35.8637 39.6861 35.8637C36.7088 35.8637 34.0611 35.1365 31.7429 33.6819C29.4247 32.2274 27.6008 30.1592 26.2713 27.4774C24.9417 24.7956 24.277 21.6137 24.277 17.9319C24.277 14.2501 24.9417 11.0683 26.2713 8.38647C27.6008 5.70466 29.4247 3.63647 31.7429 2.18193C34.0611 0.727383 36.7088 0.000109673 39.6861 0.000109673C42.6633 0.000109673 45.3111 0.727383 47.6292 2.18193C49.9474 3.63647 51.7713 5.70466 53.1008 8.38647C54.4304 11.0683 55.0951 14.2501 55.0951 17.9319ZM51.0042 17.9319C51.0042 14.9092 50.4986 12.3581 49.4872 10.2785C48.4872 8.19897 47.1292 6.62511 45.4133 5.55693C43.7088 4.48875 41.7997 3.95466 39.6861 3.95466C37.5724 3.95466 35.6576 4.48875 33.9417 5.55693C32.2372 6.62511 30.8792 8.19897 29.8679 10.2785C28.8679 12.3581 28.3679 14.9092 28.3679 17.9319C28.3679 20.9547 28.8679 23.5058 29.8679 25.5853C30.8792 27.6649 32.2372 29.2387 33.9417 30.3069C35.6576 31.3751 37.5724 31.9092 39.6861 31.9092C41.7997 31.9092 43.7088 31.3751 45.4133 30.3069C47.1292 29.2387 48.4872 27.6649 49.4872 25.5853C50.4986 23.5058 51.0042 20.9547 51.0042 17.9319ZM86.0667 11.3865C85.6917 10.2387 85.1974 9.21034 84.5838 8.30125C83.9815 7.38079 83.2599 6.5967 82.419 5.94897C81.5895 5.30125 80.6463 4.80693 79.5895 4.46602C78.5326 4.12511 77.3736 3.95466 76.1122 3.95466C74.044 3.95466 72.1633 4.48875 70.4701 5.55693C68.777 6.62511 67.4304 8.19897 66.4304 10.2785C65.4304 12.3581 64.9304 14.9092 64.9304 17.9319C64.9304 20.9547 65.4361 23.5058 66.4474 25.5853C67.4588 27.6649 68.8281 29.2387 70.5554 30.3069C72.2826 31.3751 74.2258 31.9092 76.3849 31.9092C78.3849 31.9092 80.1463 31.4831 81.669 30.6308C83.2031 29.7672 84.3963 28.5512 85.2486 26.9831C86.1122 25.4035 86.544 23.5456 86.544 21.4092L87.8395 21.6819H77.3395V17.9319H90.6349V21.6819C90.6349 24.5569 90.0213 27.0569 88.794 29.1819C87.5781 31.3069 85.8963 32.9547 83.7486 34.1251C81.6122 35.2842 79.1576 35.8637 76.3849 35.8637C73.294 35.8637 70.5781 35.1365 68.2372 33.6819C65.9076 32.2274 64.0895 30.1592 62.7826 27.4774C61.4872 24.7956 60.8395 21.6137 60.8395 17.9319C60.8395 15.1706 61.2088 12.6876 61.9474 10.4831C62.6974 8.26716 63.7542 6.38079 65.1179 4.82397C66.4815 3.26716 68.0951 2.07397 69.9588 1.24443C71.8224 0.414883 73.8736 0.000109673 76.1122 0.000109673C77.9531 0.000109673 79.669 0.278519 81.2599 0.835337C82.8622 1.38079 84.2883 2.1592 85.5383 3.17056C86.7997 4.17056 87.8508 5.36943 88.6917 6.76716C89.5326 8.15352 90.1122 9.69329 90.4304 11.3865H86.0667ZM127.33 17.9319C127.33 21.6137 126.665 24.7956 125.335 27.4774C124.006 30.1592 122.182 32.2274 119.864 33.6819C117.545 35.1365 114.898 35.8637 111.92 35.8637C108.943 35.8637 106.295 35.1365 103.977 33.6819C101.659 32.2274 99.8352 30.1592 98.5057 27.4774C97.1761 24.7956 96.5113 21.6137 96.5113 17.9319C96.5113 14.2501 97.1761 11.0683 98.5057 8.38647C99.8352 5.70466 101.659 3.63647 103.977 2.18193C106.295 0.727383 108.943 0.000109673 111.92 0.000109673C114.898 0.000109673 117.545 0.727383 119.864 2.18193C122.182 3.63647 124.006 5.70466 125.335 8.38647C126.665 11.0683 127.33 14.2501 127.33 17.9319ZM123.239 17.9319C123.239 14.9092 122.733 12.3581 121.722 10.2785C120.722 8.19897 119.364 6.62511 117.648 5.55693C115.943 4.48875 114.034 3.95466 111.92 3.95466C109.807 3.95466 107.892 4.48875 106.176 5.55693C104.472 6.62511 103.114 8.19897 102.102 10.2785C101.102 12.3581 100.602 14.9092 100.602 17.9319C100.602 20.9547 101.102 23.5058 102.102 25.5853C103.114 27.6649 104.472 29.2387 106.176 30.3069C107.892 31.3751 109.807 31.9092 111.92 31.9092C114.034 31.9092 115.943 31.3751 117.648 30.3069C119.364 29.2387 120.722 27.6649 121.722 25.5853C122.733 23.5058 123.239 20.9547 123.239 17.9319ZM134.437 35.3865V0.477383H138.665V16.0228H157.278V0.477383H161.506V35.3865H157.278V19.7728H138.665V35.3865H134.437ZM169.969 35.3865V0.477383H191.037V4.22738H174.196V16.0228H189.946V19.7728H174.196V31.6365H191.31V35.3865H169.969ZM198.656 35.3865V0.477383H210.452C213.179 0.477383 215.418 0.943292 217.168 1.87511C218.918 2.79556 220.213 4.06261 221.054 5.67625C221.895 7.28988 222.315 9.12511 222.315 11.1819C222.315 13.2387 221.895 15.0626 221.054 16.6535C220.213 18.2444 218.923 19.4944 217.185 20.4035C215.446 21.3012 213.224 21.7501 210.52 21.7501H200.974V17.9319H210.384C212.247 17.9319 213.747 17.6592 214.884 17.1137C216.031 16.5683 216.861 15.7956 217.372 14.7956C217.895 13.7842 218.156 12.5797 218.156 11.1819C218.156 9.7842 217.895 8.56261 217.372 7.51716C216.849 6.4717 216.014 5.66488 214.866 5.0967C213.719 4.51716 212.202 4.22738 210.315 4.22738H202.884V35.3865H198.656ZM215.088 19.7047L223.679 35.3865H218.77L210.315 19.7047H215.088ZM229.359 35.3865V0.477383H250.428V4.22738H233.587V16.0228H249.337V19.7728H233.587V31.6365H250.7V35.3865H229.359Z" fill="black"/>
</svg>
